<svg id="Layer_1" data-name="Layer 1" xmlns="http://www.w3.org/2000/svg" xmlns:xlink="http://www.w3.org/1999/xlink" viewBox="0 0 35.14 39.38"><defs><style>.cls-1{fill:url(#radial-gradient);}.cls-2{fill:url(#radial-gradient-2);}.cls-3{fill:none;stroke:#000;stroke-miterlimit:10;stroke-width:0.1px;}.cls-4{fill:url(#radial-gradient-3);}</style><radialGradient id="radial-gradient" cx="43.02" cy="11.05" r="41.13" gradientUnits="userSpaceOnUse"><stop offset="0.36" stop-color="#fe96ff"/><stop offset="0.48" stop-color="#e199f9"/><stop offset="0.76" stop-color="#96a1eb"/><stop offset="1" stop-color="#4fa8dd"/></radialGradient><radialGradient id="radial-gradient-2" cx="4.39" cy="3.26" r="32.62" gradientUnits="userSpaceOnUse"><stop offset="0.41" stop-color="#fe96ff"/><stop offset="0.53" stop-color="#e199f9"/><stop offset="0.78" stop-color="#96a1eb"/><stop offset="1" stop-color="#4fa8dd"/></radialGradient><radialGradient id="radial-gradient-3" cx="48.89" cy="31.45" r="20.63" xlink:href="#radial-gradient"/></defs><polygon class="cls-1" points="33.37 9.01 30.6 10.63 22 15.67 21.44 16 19.21 17.31 17.82 18.12 16.06 17.13 14.42 16.21 12.76 15.28 10.21 13.86 6.94 12.02 4.72 10.78 1.85 9.17 5.44 7.04 6.94 6.15 10.13 4.25 12.76 2.69 12.76 6 10.16 7.54 8.31 8.65 10.18 9.69 12.76 11.14 16.03 12.97 15.95 4.1 15.92 0.81 17.28 0 19.06 1 19.09 4.19 19.18 13.49 21.97 11.89 27.34 8.81 21.92 5.77 21.9 2.59 30.14 7.2 33.37 9.01"/><polygon class="cls-2" points="16.11 22.5 14.89 23.2 12.76 24.42 12.51 24.56 10.32 25.82 8.86 26.65 6.94 27.75 4.09 29.39 1.2 31.04 0.2 30.48 0.17 28.46 0.12 24.41 0.09 21.74 0.03 17.57 0 14.86 2.91 16.49 2.94 19.2 2.95 19.2 2.99 22.77 3 23.37 3.04 26.78 6 25.05 6.94 25.58 6.94 14.61 10.24 16.46 10.25 18.6 10.27 20.61 10.29 22.54 11.96 21.56 12.76 21.09 12.76 17.87 15.57 19.44 16.09 19.73 16.11 22.5"/><polygon class="cls-3" points="12.76 24.7 12.51 24.56 12.76 24.42 12.76 24.7"/><polygon class="cls-3" points="22.06 22.89 22.06 23.08 21.89 22.99 22.06 22.89"/><path class="cls-4" d="M66.08,35.36l0-4.17,0-2,0-3.61,0-2.71,0-3.62-2.71,1.56-7.72,4.42L53,26.67l-1.21.69-1.58.9v.81l0,3V34.6l0,1.34,0,2.48,0,1.67,0,3.64,0,3.21,2.75-1.64,3.14-1.87,3.59-2.13,2.32-1.38,3.59-2.13.33-.2ZM53,30.64l-.17-.09.17-.1,2.09-1.22,3.62-2.12,4.47-2.63,0,2.68-2.19,1.25-3.65,2.1-2.28,1.31L53.05,33Zm10,5.58L59.4,38.35l-2.33,1.39-3.58,2.13-.37.22v-.43l0-4.16v-.7l1.73-1,3.61-2.12,2.26-1.32,2.61-1.53,0,3,0,2.18Z" transform="translate(-30.97 -7.56)"/><polygon class="cls-3" points="12.76 24.42 12.76 24.7 12.51 24.56 12.76 24.42"/><polygon class="cls-3" points="22.06 22.89 22.06 23.08 21.89 22.99 22.06 22.89"/><polygon class="cls-3" points="22.06 22.89 22.06 23.08 21.89 22.99 22.06 22.89"/><polygon class="cls-3" points="12.76 24.42 12.76 24.7 12.51 24.56 12.76 24.42"/><polygon class="cls-3" points="6.94 34.13 6.94 34.26 6.83 34.19 6.94 34.13"/></svg>